<mxfile host="app.diagrams.net" modified="2023-08-29T02:28:41.344Z" agent="Mozilla/5.0 (Macintosh; Intel Mac OS X 10_15_7) AppleWebKit/537.36 (KHTML, like Gecko) Chrome/116.0.0.0 Safari/537.36" etag="0DQCAkQdoQGbi2aYbjbt" version="21.6.5" type="github">
  <diagram name="第 1 页" id="2rqvZ14EzhXvL73BlL95">
    <mxGraphModel dx="645" dy="411" grid="0" gridSize="10" guides="1" tooltips="1" connect="1" arrows="1" fold="1" page="0" pageScale="1" pageWidth="827" pageHeight="1169" math="0" shadow="0">
      <root>
        <mxCell id="0" />
        <mxCell id="1" parent="0" />
        <mxCell id="DNhpUjChi7D4ri0Lo9Kb-1" value="" style="rounded=0;whiteSpace=wrap;html=1;dashed=1;fillColor=none;" vertex="1" parent="1">
          <mxGeometry x="160" y="80" width="120" height="160" as="geometry" />
        </mxCell>
        <mxCell id="DNhpUjChi7D4ri0Lo9Kb-2" value="支付清算知识库" style="rounded=0;whiteSpace=wrap;html=1;fillColor=#ffe6cc;strokeColor=#d79b00;" vertex="1" parent="1">
          <mxGeometry x="170" y="90" width="100" height="20" as="geometry" />
        </mxCell>
        <mxCell id="DNhpUjChi7D4ri0Lo9Kb-3" value="大模型" style="rounded=0;whiteSpace=wrap;html=1;fillColor=none;strokeColor=#d79b00;" vertex="1" parent="1">
          <mxGeometry x="170" y="120" width="100" height="20" as="geometry" />
        </mxCell>
        <mxCell id="DNhpUjChi7D4ri0Lo9Kb-4" value="知识图谱" style="rounded=0;whiteSpace=wrap;html=1;fillColor=none;strokeColor=#d79b00;" vertex="1" parent="1">
          <mxGeometry x="170" y="150" width="100" height="20" as="geometry" />
        </mxCell>
        <mxCell id="DNhpUjChi7D4ri0Lo9Kb-5" value="智能搜索" style="rounded=0;whiteSpace=wrap;html=1;fillColor=none;strokeColor=#d79b00;" vertex="1" parent="1">
          <mxGeometry x="170" y="180" width="100" height="20" as="geometry" />
        </mxCell>
        <mxCell id="DNhpUjChi7D4ri0Lo9Kb-6" value="文档管理" style="rounded=0;whiteSpace=wrap;html=1;fillColor=none;strokeColor=#d79b00;" vertex="1" parent="1">
          <mxGeometry x="170" y="210" width="100" height="20" as="geometry" />
        </mxCell>
        <mxCell id="DNhpUjChi7D4ri0Lo9Kb-7" value="" style="rounded=0;whiteSpace=wrap;html=1;dashed=1;fillColor=none;" vertex="1" parent="1">
          <mxGeometry x="320" y="80" width="90" height="160" as="geometry" />
        </mxCell>
        <mxCell id="DNhpUjChi7D4ri0Lo9Kb-8" value="" style="shape=flexArrow;endArrow=classic;html=1;rounded=0;endWidth=4.531445231153686;endSize=2.5387755102040814;width=4.897959183673469;fillColor=#dae8fc;strokeColor=#6c8ebf;" edge="1" parent="1">
          <mxGeometry width="50" height="50" relative="1" as="geometry">
            <mxPoint x="286" y="159.8" as="sourcePoint" />
            <mxPoint x="316" y="159.8" as="targetPoint" />
          </mxGeometry>
        </mxCell>
        <mxCell id="DNhpUjChi7D4ri0Lo9Kb-9" value="智能助手" style="rounded=0;whiteSpace=wrap;html=1;fillColor=#d5e8d4;strokeColor=#82b366;" vertex="1" parent="1">
          <mxGeometry x="330" y="90" width="70" height="20" as="geometry" />
        </mxCell>
        <mxCell id="DNhpUjChi7D4ri0Lo9Kb-10" value="文本机器人" style="rounded=0;whiteSpace=wrap;html=1;fillColor=#d5e8d4;strokeColor=#82b366;" vertex="1" parent="1">
          <mxGeometry x="330" y="120" width="70" height="20" as="geometry" />
        </mxCell>
        <mxCell id="DNhpUjChi7D4ri0Lo9Kb-11" value="语音机器人" style="rounded=0;whiteSpace=wrap;html=1;fillColor=#d5e8d4;strokeColor=#82b366;" vertex="1" parent="1">
          <mxGeometry x="330" y="150" width="70" height="20" as="geometry" />
        </mxCell>
        <mxCell id="DNhpUjChi7D4ri0Lo9Kb-12" value="呼叫中心" style="rounded=0;whiteSpace=wrap;html=1;fillColor=#d5e8d4;strokeColor=#82b366;" vertex="1" parent="1">
          <mxGeometry x="330" y="180" width="70" height="20" as="geometry" />
        </mxCell>
        <mxCell id="DNhpUjChi7D4ri0Lo9Kb-13" value="第三方系统" style="rounded=0;whiteSpace=wrap;html=1;fillColor=#d5e8d4;strokeColor=#82b366;" vertex="1" parent="1">
          <mxGeometry x="330" y="210" width="70" height="20" as="geometry" />
        </mxCell>
        <mxCell id="DNhpUjChi7D4ri0Lo9Kb-14" value="" style="shape=flexArrow;endArrow=classic;html=1;rounded=0;endWidth=4.531445231153686;endSize=2.5387755102040814;width=4.897959183673469;fillColor=#dae8fc;strokeColor=#6c8ebf;" edge="1" parent="1">
          <mxGeometry width="50" height="50" relative="1" as="geometry">
            <mxPoint x="420" y="120.00000000000001" as="sourcePoint" />
            <mxPoint x="450" y="120.00000000000001" as="targetPoint" />
          </mxGeometry>
        </mxCell>
        <mxCell id="DNhpUjChi7D4ri0Lo9Kb-15" value="" style="shape=flexArrow;endArrow=classic;html=1;rounded=0;endWidth=4.531445231153686;endSize=2.5387755102040814;width=4.897959183673469;fillColor=#dae8fc;strokeColor=#6c8ebf;" edge="1" parent="1">
          <mxGeometry width="50" height="50" relative="1" as="geometry">
            <mxPoint x="450" y="131.8" as="sourcePoint" />
            <mxPoint x="420" y="131.8" as="targetPoint" />
          </mxGeometry>
        </mxCell>
        <mxCell id="DNhpUjChi7D4ri0Lo9Kb-16" value="&lt;font style=&quot;font-size: 13px;&quot;&gt;外部用户&lt;/font&gt;" style="text;html=1;strokeColor=none;fillColor=none;align=center;verticalAlign=middle;whiteSpace=wrap;rounded=0;fontColor=#000000;" vertex="1" parent="1">
          <mxGeometry x="460" y="112" width="60" height="30" as="geometry" />
        </mxCell>
        <mxCell id="DNhpUjChi7D4ri0Lo9Kb-17" value="" style="shape=flexArrow;endArrow=classic;html=1;rounded=0;endWidth=4.531445231153686;endSize=2.5387755102040814;width=4.897959183673469;fillColor=#dae8fc;strokeColor=#6c8ebf;" edge="1" parent="1">
          <mxGeometry width="50" height="50" relative="1" as="geometry">
            <mxPoint x="420" y="183" as="sourcePoint" />
            <mxPoint x="450" y="183" as="targetPoint" />
          </mxGeometry>
        </mxCell>
        <mxCell id="DNhpUjChi7D4ri0Lo9Kb-18" value="" style="shape=flexArrow;endArrow=classic;html=1;rounded=0;endWidth=4.531445231153686;endSize=2.5387755102040814;width=4.897959183673469;fillColor=#dae8fc;strokeColor=#6c8ebf;" edge="1" parent="1">
          <mxGeometry width="50" height="50" relative="1" as="geometry">
            <mxPoint x="450" y="194.8" as="sourcePoint" />
            <mxPoint x="420" y="194.8" as="targetPoint" />
          </mxGeometry>
        </mxCell>
        <mxCell id="DNhpUjChi7D4ri0Lo9Kb-19" value="&lt;span style=&quot;font-size: 13px;&quot;&gt;内部用户&lt;/span&gt;" style="text;html=1;strokeColor=none;fillColor=none;align=center;verticalAlign=middle;whiteSpace=wrap;rounded=0;fontColor=#000000;" vertex="1" parent="1">
          <mxGeometry x="460" y="175" width="60" height="30" as="geometry" />
        </mxCell>
        <mxCell id="DNhpUjChi7D4ri0Lo9Kb-20" value="" style="rounded=0;whiteSpace=wrap;html=1;dashed=1;fillColor=none;" vertex="1" parent="1">
          <mxGeometry x="30" y="80" width="90" height="160" as="geometry" />
        </mxCell>
        <mxCell id="DNhpUjChi7D4ri0Lo9Kb-21" value="规章制度" style="rounded=0;whiteSpace=wrap;html=1;fillColor=#dae8fc;strokeColor=#6c8ebf;" vertex="1" parent="1">
          <mxGeometry x="40" y="90" width="70" height="20" as="geometry" />
        </mxCell>
        <mxCell id="DNhpUjChi7D4ri0Lo9Kb-22" value="运维文档" style="rounded=0;whiteSpace=wrap;html=1;fillColor=#dae8fc;strokeColor=#6c8ebf;" vertex="1" parent="1">
          <mxGeometry x="40" y="150" width="70" height="20" as="geometry" />
        </mxCell>
        <mxCell id="DNhpUjChi7D4ri0Lo9Kb-23" value="开发文档" style="rounded=0;whiteSpace=wrap;html=1;fillColor=#dae8fc;strokeColor=#6c8ebf;" vertex="1" parent="1">
          <mxGeometry x="40" y="180" width="70" height="20" as="geometry" />
        </mxCell>
        <mxCell id="DNhpUjChi7D4ri0Lo9Kb-24" value="管理办法" style="rounded=0;whiteSpace=wrap;html=1;fillColor=#dae8fc;strokeColor=#6c8ebf;" vertex="1" parent="1">
          <mxGeometry x="40" y="120" width="70" height="20" as="geometry" />
        </mxCell>
        <mxCell id="DNhpUjChi7D4ri0Lo9Kb-25" value="产品手册" style="rounded=0;whiteSpace=wrap;html=1;fillColor=#dae8fc;strokeColor=#6c8ebf;" vertex="1" parent="1">
          <mxGeometry x="40" y="210" width="70" height="20" as="geometry" />
        </mxCell>
        <mxCell id="DNhpUjChi7D4ri0Lo9Kb-28" value="" style="shape=flexArrow;endArrow=classic;html=1;rounded=0;endWidth=4.531445231153686;endSize=2.5387755102040814;width=4.897959183673469;fillColor=#dae8fc;strokeColor=#6c8ebf;" edge="1" parent="1">
          <mxGeometry width="50" height="50" relative="1" as="geometry">
            <mxPoint x="126" y="159.73000000000002" as="sourcePoint" />
            <mxPoint x="156" y="159.73000000000002" as="targetPoint" />
          </mxGeometry>
        </mxCell>
      </root>
    </mxGraphModel>
  </diagram>
</mxfile>
